<?xml version="1.0" encoding="UTF-8"?>
<svg id="Calque_1" data-name="Calque 1" xmlns="http://www.w3.org/2000/svg" viewBox="0 0 221.63 132.23">
  <defs>
    <style>
      .cls-1 {
        fill: #77b7d7;
      }

      .cls-1, .cls-2, .cls-3, .cls-4, .cls-5 {
        stroke-width: 0px;
      }

      .cls-6 {
        stroke: #00354c;
        stroke-miterlimit: 10;
      }

      .cls-6, .cls-2 {
        fill: none;
      }

      .cls-3 {
        fill: #00354c;
      }

      .cls-4 {
        fill: #ffd500;
      }

      .cls-5 {
        fill: #fff;
      }
    </style>
  </defs>
  <g>
    <g>
      <path class="cls-3" d="M0,109.1v-9.75c0-4.55,2.58-7.08,6.46-7.08s6.43,2.44,6.66,6.89h-2.68c-.2-2.97-1.59-4.35-4.01-4.35-2.22,0-3.71,1.45-3.71,4.55v9.75c0,3.06,1.56,4.51,3.81,4.51,2.45,0,3.81-1.42,4.07-4.32h2.68c-.26,4.38-2.72,6.85-6.76,6.85s-6.53-2.5-6.53-7.05Z"/>
      <path class="cls-3" d="M54.68,98.43v17.33h-1.95l-.33-2.04c-.89,1.52-2.39,2.47-4.44,2.47-2.92,0-4.77-2.04-4.77-6.79v-10.97h2.58v10.77c0,3.13.86,4.51,2.85,4.51,2.09,0,3.48-1.71,3.48-4.68v-10.61h2.58Z"/>
      <path class="cls-3" d="M69.05,98.26v2.64c-.63-.23-1.33-.36-2.19-.36-2.32,0-3.84,1.68-3.84,4.61v10.61h-2.58v-17.33h1.95l.36,2.11c.89-1.55,2.38-2.5,4.5-2.5.69,0,1.26.07,1.79.23Z"/>
      <path class="cls-3" d="M93.52,91.91v23.85h-1.95l-.26-1.61c-.86,1.19-2.38,2.01-4.01,2.01-3.25,0-5.5-2.37-5.5-6.69v-4.88c0-4.25,2.12-6.59,5.5-6.59,1.39,0,2.75.59,3.68,1.65v-7.74h2.55ZM90.97,104.59c0-2.5-1.23-4.15-3.21-4.15-2.19,0-3.31,1.25-3.31,4.15v4.88c0,2.97,1.23,4.25,3.31,4.25,1.82,0,3.21-1.35,3.21-4.22v-4.91Z"/>
      <path class="cls-3" d="M110.84,110.39c-.26,3.66-2.48,5.73-6.19,5.73s-5.8-2.31-5.8-6.36v-5.44c0-4.02,2.28-6.33,5.83-6.33s5.93,2.31,5.93,6.33v3.86h-9.11v1.58c0,2.64,1.19,3.82,3.21,3.82,2.22,0,3.25-.99,3.55-3.2h2.58ZM101.49,104.29v1.75h6.52v-1.75c0-2.6-1.23-3.82-3.31-3.82s-3.21,1.22-3.21,3.82Z"/>
      <path class="cls-3" d="M114.77,110.52h2.58c.03,1.91,1.19,3.2,3.41,3.2,1.89,0,3.01-.96,3.01-2.54,0-3.86-8.78-2.5-8.78-8.4,0-2.9,2.15-4.78,5.47-4.78,3.48,0,5.53,2.21,5.6,5.44h-2.55c-.03-1.88-1.09-3.03-3.05-3.03-1.79,0-2.85.92-2.85,2.41,0,3.66,8.78,2.24,8.78,8.4,0,2.97-2.19,4.98-5.6,4.98-3.74,0-6-2.41-6.03-5.67Z"/>
      <path class="cls-3" d="M184.91,93.59c0-1.09.73-1.81,1.82-1.81s1.82.72,1.82,1.81c0,1.02-.76,1.78-1.82,1.78s-1.82-.72-1.82-1.78Z"/>
    </g>
    <g>
      <path class="cls-3" d="M49.21,131.05v1.02h-4.28v-9.13h1.08v8.12h3.21Z"/>
      <path class="cls-3" d="M56.02,129.94c-.1,1.45-.99,2.27-2.46,2.27s-2.3-.91-2.3-2.52v-2.15c0-1.59.91-2.5,2.31-2.5s2.35.91,2.35,2.5v1.53h-3.61v.63c0,1.04.47,1.51,1.27,1.51.88,0,1.29-.39,1.41-1.27h1.02ZM52.31,127.52v.69h2.59v-.69c0-1.03-.49-1.51-1.31-1.51s-1.27.48-1.27,1.51Z"/>
      <path class="cls-3" d="M69.93,122.93v9.13h-1.06v-4.19c.01-.99.04-1.88.09-2.77h-.05c-.25.68-.59,1.53-.92,2.39l-.96,2.46h-1.06l-.97-2.46c-.32-.86-.67-1.71-.91-2.4h-.07c.05.9.09,1.79.09,2.78v4.19h-1.06v-9.13h1.13l1.59,3.82c.22.55.55,1.45.7,1.92h.05c.16-.47.49-1.37.71-1.92l1.59-3.82h1.12Z"/>
      <path class="cls-3" d="M72.86,129.67v-2.1c0-1.64.93-2.54,2.38-2.54s2.36.9,2.36,2.54v2.1c0,1.64-.92,2.54-2.36,2.54s-2.38-.9-2.38-2.54ZM76.56,129.67v-2.1c0-1.07-.5-1.54-1.33-1.54s-1.33.47-1.33,1.54v2.1c0,1.07.5,1.55,1.33,1.55s1.33-.48,1.33-1.55Z"/>
      <path class="cls-3" d="M84.94,127.72v4.34h-1.02v-4.27c0-1.24-.34-1.79-1.13-1.79-.83,0-1.38.68-1.38,1.85v4.2h-1.02v-6.86h.77l.13.81c.36-.6.95-.98,1.76-.98,1.16,0,1.89.81,1.89,2.69Z"/>
      <path class="cls-3" d="M92.39,129.94c-.1,1.45-.99,2.27-2.46,2.27s-2.3-.91-2.3-2.52v-2.15c0-1.59.91-2.5,2.31-2.5s2.35.91,2.35,2.5v1.53h-3.61v.63c0,1.04.47,1.51,1.27,1.51.88,0,1.29-.39,1.41-1.27h1.02ZM89.24,124.16h-.85l1.08-1.55h.96l1.06,1.55h-.84l-.7-.91-.71.91ZM88.69,127.52v.69h2.59v-.69c0-1.03-.49-1.51-1.31-1.51s-1.27.48-1.27,1.51Z"/>
      <path class="cls-3" d="M97.97,131.18v.97h-.43c-1.33,0-2.08-.83-2.08-2.21v-3.8h-1.03v-.94h1.03v-1.6h1.02v1.6h1.34v.94h-1.34v3.8c0,.82.33,1.24,1.08,1.24h.41Z"/>
      <path class="cls-3" d="M100.19,123.28c0-.43.29-.72.72-.72s.72.29.72.72c0,.41-.3.7-.72.7s-.72-.29-.72-.7ZM100.4,125.2h1.04v6.86h-1.04v-6.86Z"/>
      <path class="cls-3" d="M108.96,129.94c-.1,1.45-.98,2.27-2.46,2.27s-2.3-.91-2.3-2.52v-2.15c0-1.59.91-2.5,2.31-2.5s2.35.91,2.35,2.5v1.53h-3.61v.63c0,1.04.47,1.51,1.27,1.51.88,0,1.29-.39,1.41-1.27h1.02ZM105.25,127.52v.69h2.59v-.69c0-1.03-.49-1.51-1.31-1.51s-1.27.48-1.27,1.51Z"/>
      <path class="cls-3" d="M115.03,125.14v1.04c-.25-.09-.53-.14-.87-.14-.92,0-1.52.67-1.52,1.83v4.2h-1.02v-6.86h.77l.14.83c.35-.61.95-.99,1.79-.99.28,0,.5.03.71.09Z"/>
      <path class="cls-3" d="M117.04,128.24h3.19v.93h-3.19v-.93Z"/>
      <path class="cls-3" d="M122.92,122.62h1.02v9.45h-1.02v-9.45Z"/>
      <path class="cls-3" d="M131.47,129.94c-.11,1.45-.99,2.27-2.46,2.27s-2.3-.91-2.3-2.52v-2.15c0-1.59.91-2.5,2.31-2.5s2.35.91,2.35,2.5v1.53h-3.61v.63c0,1.04.47,1.51,1.28,1.51.88,0,1.29-.39,1.41-1.27h1.02ZM127.77,127.52v.69h2.59v-.69c0-1.03-.48-1.51-1.31-1.51s-1.28.48-1.28,1.51Z"/>
      <path class="cls-3" d="M133.68,129.99h1.02c.01.76.47,1.26,1.35,1.26.75,0,1.2-.38,1.2-1,0-1.53-3.48-.99-3.48-3.33,0-1.15.85-1.89,2.17-1.89,1.38,0,2.19.87,2.22,2.15h-1.01c-.01-.74-.43-1.2-1.21-1.2-.71,0-1.13.36-1.13.95,0,1.45,3.48.89,3.48,3.33,0,1.17-.87,1.97-2.22,1.97-1.48,0-2.38-.95-2.39-2.24Z"/>
      <path class="cls-3" d="M140.56,128.24h3.19v.93h-3.19v-.93Z"/>
      <path class="cls-3" d="M151.71,129.51c0,1.63-1.01,2.56-2.63,2.56h-2.51v-9.13h2.34c1.51,0,2.44.9,2.44,2.43,0,.99-.41,1.71-1.04,2,.87.27,1.39,1.06,1.39,2.15ZM147.65,123.93v2.96h1.21c.93,0,1.39-.52,1.39-1.51s-.46-1.45-1.42-1.45h-1.18ZM150.62,129.51c0-1.06-.68-1.6-1.72-1.6h-1.25v3.16h1.34c1.09,0,1.63-.48,1.63-1.55Z"/>
      <path class="cls-3" d="M158.51,127.4v4.66h-.85l-.08-.65c-.3.47-.8.82-1.58.82-1.26,0-2.15-.81-2.15-2.13s.93-2.09,2.44-2.09h1.18v-.6c0-.9-.38-1.39-1.17-1.39-.67,0-1.16.36-1.21,1.06h-1.04c.05-1.25.93-2.05,2.27-2.05s2.18.89,2.18,2.37ZM157.47,128.93h-1.2c-.89,0-1.38.42-1.38,1.19s.51,1.16,1.3,1.16,1.27-.5,1.27-1.21v-1.14Z"/>
      <path class="cls-3" d="M161.24,123.28c0-.43.29-.72.72-.72s.72.29.72.72c0,.41-.3.7-.72.7s-.72-.29-.72-.7ZM161.45,125.2h1.04v6.86h-1.04v-6.86Z"/>
      <path class="cls-3" d="M169.98,127.72v4.34h-1.02v-4.27c0-1.24-.34-1.79-1.13-1.79-.83,0-1.38.68-1.38,1.85v4.2h-1.02v-6.86h.77l.13.81c.35-.6.95-.98,1.76-.98,1.16,0,1.89.81,1.89,2.69Z"/>
      <path class="cls-3" d="M172.41,129.99h1.02c.01.76.47,1.26,1.35,1.26.75,0,1.2-.38,1.2-1,0-1.53-3.48-.99-3.48-3.33,0-1.15.85-1.89,2.17-1.89,1.38,0,2.19.87,2.22,2.15h-1.01c-.01-.74-.43-1.2-1.21-1.2-.71,0-1.13.36-1.13.95,0,1.45,3.48.89,3.48,3.33,0,1.17-.87,1.97-2.22,1.97-1.48,0-2.38-.95-2.39-2.24Z"/>
    </g>
    <path class="cls-1" d="M79.89,73.4s12.29-16.58,27.89-20.7c0,0,8.81,15.61,17.13,18.56,0,0-7.97-12.77-7.95-17.76,0,0,12.52,12.31,19.49,13.65,6.98,1.34,12.37-1.28,18.46,3.15,3.95,2.88,7.71,5.68,9.85,7.29,1.08-4.02,1.73-8.23,1.88-12.57.11-3.01-.03-5.97-.39-8.86l-13.79-.77,13.37-1.99c-.6-3.44-1.52-6.78-2.72-9.98l-62.11-2.65,59.87-2.48c-.58-1.16-1.19-2.3-1.85-3.42l-28.28-1,25.73-2.95c-1.31-1.85-2.73-3.63-4.25-5.3l-50.64-1.21,46.82-2.63c-9.42-8.58-21.82-13.99-35.55-14.48-18.27-.65-34.81,7.57-45.46,20.79l37.89,2.22-40.83,1.79c-.91,1.36-1.75,2.75-2.54,4.19l12.7.58-13.95,1.84c-1.08,2.22-2.01,4.52-2.79,6.9l45.12.85-46.21,2.93c-.94,3.75-1.51,7.66-1.66,11.69-.28,7.99,1.13,15.64,3.91,22.62l23.08-20.65-2.24,10.38Z"/>
    <path class="cls-4" d="M54.69,88.09c-3.43-7.66-5.35-16.13-5.35-25.05C49.34,29.09,76.95,1.48,110.89,1.48s61.55,27.61,61.55,61.55c0,8.92-1.92,17.39-5.35,25.05h1.63c3.34-7.68,5.21-16.15,5.21-25.05C173.93,28.28,145.65,0,110.89,0s-63.03,28.28-63.03,63.03c0,8.9,1.86,17.37,5.21,25.05h1.63Z"/>
    <polygon class="cls-5" points="130.69 45.37 131.08 50.47 134.39 46.57 131.71 50.92 136.68 49.72 131.95 51.66 136.68 53.61 131.71 52.4 134.39 56.75 131.08 52.86 130.69 57.95 130.31 52.86 127 56.75 129.68 52.4 124.71 53.61 129.44 51.66 124.71 49.72 129.68 50.92 127 46.57 130.31 50.47 130.69 45.37"/>
    <line class="cls-6" x1="36.26" y1="128.27" x2="10.67" y2="128.27"/>
    <line class="cls-6" x1="209.78" y1="128.27" x2="184.19" y2="128.27"/>
  </g>
  <polygon class="cls-5" points="92.3 16.39 92.46 18.8 93.8 16.96 92.71 19.02 94.73 18.45 92.81 19.37 94.73 20.29 92.71 19.72 93.8 21.79 92.46 19.94 92.3 22.36 92.14 19.94 90.8 21.79 91.89 19.72 89.88 20.29 91.79 19.37 89.88 18.45 91.89 19.02 90.8 16.96 92.14 18.8 92.3 16.39"/>
  <polygon class="cls-5" points="122.29 5.79 122.45 8.21 123.79 6.36 122.7 8.42 124.71 7.85 122.8 8.77 124.71 9.7 122.7 9.12 123.79 11.19 122.45 9.34 122.29 11.76 122.13 9.34 120.79 11.19 121.88 9.12 119.86 9.7 121.78 8.77 119.86 7.85 121.88 8.42 120.79 6.36 122.13 8.21 122.29 5.79"/>
  <g>
    <path class="cls-2" d="M35.67,104.42c0-2.6-1.19-3.82-3.21-3.82s-3.15,1.22-3.15,3.82v1.58h6.36v-1.58Z"/>
    <path class="cls-3" d="M35.7,110.12c-.07,2.37-1.19,3.46-3.25,3.46s-3.15-1.19-3.15-3.82v-1.71h8.94v-3.59c0-4.05-2.25-6.33-5.8-6.33-1.92,0-3.51.86-4.44,2.47-.99-1.65-2.62-2.47-4.54-2.47-3.58,0-5.9,2.27-5.9,6.39v5.17c0,4.12,2.32,6.42,5.9,6.42,1.92,0,3.54-.86,4.54-2.47.93,1.61,2.52,2.47,4.41,2.47,3.51,0,5.8-2.17,5.9-6h-2.62ZM29.31,104.42c0-2.6,1.16-3.82,3.15-3.82s3.21,1.22,3.21,3.82v1.58h-6.36v-1.58ZM26.49,109.46c0,2.67-1.19,3.89-3.21,3.89s-3.25-1.22-3.25-3.89v-5.17c0-2.67,1.19-3.85,3.25-3.85s3.21,1.19,3.21,3.85v5.17Z"/>
  </g>
  <g>
    <path class="cls-3" d="M152.65,113.15v2.54h-11.49v-23.11h11.12v2.51h-8.4v7.63h7.8v2.48h-7.8v7.96h8.77ZM147.24,90.3h-2.26l3.05-3.93h2.76l-3.55,3.93Z"/>
    <path class="cls-3" d="M156.4,109.75v-5.58c0-4,2.26-6.27,5.78-6.27s5.78,2.28,5.91,6.27h-2.66c-.07-2.54-1.23-3.76-3.25-3.76s-3.12,1.22-3.12,3.76v5.58c0,2.58,1.16,3.76,3.12,3.76,2.06,0,3.22-1.19,3.32-3.76h2.62c-.1,4.03-2.36,6.31-5.94,6.31s-5.78-2.28-5.78-6.31Z"/>
    <path class="cls-3" d="M181.4,98.16v2.64c-.63-.23-1.33-.36-2.19-.36-2.32,0-3.85,1.68-3.85,4.62v10.63h-2.59v-17.37h1.96l.37,2.11c.9-1.55,2.39-2.51,4.52-2.51.7,0,1.26.07,1.79.23Z"/>
    <path class="cls-3" d="M185.05,93.47c0-1.09.73-1.82,1.83-1.82s1.83.73,1.83,1.82c0,1.02-.76,1.78-1.83,1.78s-1.83-.73-1.83-1.78ZM185.58,98.33h2.62v17.37h-2.62v-17.37Z"/>
    <path class="cls-3" d="M205.5,104.7v11h-2.59v-10.8c0-3.14-.86-4.52-2.86-4.52-2.09,0-3.49,1.72-3.49,4.69v10.63h-2.59v-17.37h1.96l.33,2.05c.9-1.52,2.39-2.48,4.45-2.48,2.92,0,4.78,2.05,4.78,6.8Z"/>
    <path class="cls-3" d="M209.98,110.44h2.59c.03,1.92,1.2,3.2,3.42,3.2,1.89,0,3.02-.96,3.02-2.54,0-3.86-8.8-2.51-8.8-8.42,0-2.91,2.16-4.79,5.48-4.79,3.49,0,5.54,2.21,5.61,5.45h-2.56c-.03-1.88-1.1-3.04-3.05-3.04-1.79,0-2.86.92-2.86,2.41,0,3.67,8.8,2.25,8.8,8.42,0,2.97-2.19,4.99-5.61,4.99-3.75,0-6.01-2.41-6.04-5.68Z"/>
  </g>
</svg>