<?xml version="1.0" encoding="UTF-8"?>
<svg id="Calque_1" data-name="Calque 1" xmlns="http://www.w3.org/2000/svg" xmlns:xlink="http://www.w3.org/1999/xlink" viewBox="0 0 206 84.11">
  <defs>
    <style>
      .cls-1 {
        fill: #b7cd00;
      }

      .cls-1, .cls-2, .cls-3, .cls-4 {
        stroke-width: 0px;
      }

      .cls-5 {
        clip-path: url(#clippath-2);
      }

      .cls-2 {
        fill: #006070;
      }

      .cls-3 {
        fill: none;
      }

      .cls-6 {
        clip-path: url(#clippath-1);
      }

      .cls-7 {
        clip-path: url(#clippath-4);
      }

      .cls-8 {
        clip-path: url(#clippath);
      }

      .cls-9 {
        clip-path: url(#clippath-3);
      }

      .cls-4 {
        fill: #fff;
      }

      .cls-10 {
        clip-path: url(#clippath-5);
      }
    </style>
    <clipPath id="clippath">
      <rect class="cls-3" width="206" height="84.11"/>
    </clipPath>
    <clipPath id="clippath-1">
      <rect class="cls-3" width="206" height="84.11"/>
    </clipPath>
    <clipPath id="clippath-2">
      <rect class="cls-3" width="206" height="84.11"/>
    </clipPath>
    <clipPath id="clippath-3">
      <rect class="cls-3" width="206" height="84.11"/>
    </clipPath>
    <clipPath id="clippath-4">
      <rect class="cls-3" width="206" height="84.11"/>
    </clipPath>
    <clipPath id="clippath-5">
      <rect class="cls-3" width="206" height="84.11"/>
    </clipPath>
  </defs>
  <polygon class="cls-2" points="80.69 82.19 76.52 76.74 76.52 82.19 75.73 82.19 75.73 75.4 76.55 75.4 80.72 80.87 80.72 75.4 81.51 75.4 81.51 82.19 80.69 82.19"/>
  <g class="cls-8">
    <path class="cls-2" d="M88.29,79.63c0,1.53-1.1,2.59-2.65,2.59s-2.65-1.06-2.65-2.59,1.1-2.57,2.65-2.57,2.65,1.05,2.65,2.57M83.76,79.64c0,1.13.78,1.9,1.88,1.9s1.88-.78,1.88-1.9-.78-1.89-1.88-1.89-1.88.78-1.88,1.89"/>
    <path class="cls-2" d="M92.34,81.85c-.37.24-.77.38-1.18.39-.76,0-1.33-.45-1.33-1.46v-2.92h-.76v-.61h.76v-1.35h.76v1.35h1.66s0,.61,0,.61h-1.66v2.79c0,.62.25.85.69.85.27,0,.55-.09.83-.26l.22.61Z"/>
    <path class="cls-2" d="M94.29,78.21c.35-.75.99-1.15,1.88-1.16v.77c-1.1-.02-1.79.65-1.88,1.66v2.72h-.77v-5.11h.77v1.13Z"/>
    <path class="cls-2" d="M101.71,79.93h-4.27c.14,1,.88,1.63,1.9,1.63.65,0,1.21-.22,1.62-.64l.43.45c-.5.54-1.23.85-2.11.85-1.54,0-2.6-1.06-2.6-2.58s1.07-2.58,2.59-2.58c1.69-.01,2.52,1.14,2.44,2.87M101.02,79.31c-.05-.98-.72-1.6-1.75-1.6s-1.71.63-1.83,1.6h3.58Z"/>
    <path class="cls-2" d="M111.11,79.65c0,1.52-1.01,2.57-2.49,2.57-.93,0-1.65-.42-2.04-1.13v2.98h-.78v-7h.78v1.11c.39-.72,1.1-1.13,2.02-1.13,1.48,0,2.51,1.07,2.51,2.6M110.33,79.63c0-1.1-.77-1.9-1.87-1.9s-1.88.8-1.88,1.9.78,1.9,1.88,1.9,1.87-.8,1.87-1.9"/>
    <path class="cls-2" d="M113.24,78.21c.35-.75.99-1.15,1.88-1.16v.77c-1.1-.02-1.79.65-1.88,1.66v2.72h-.77v-5.11h.77v1.13Z"/>
    <path class="cls-2" d="M120.94,79.63c0,1.53-1.1,2.59-2.65,2.59s-2.65-1.06-2.65-2.59,1.1-2.57,2.65-2.57,2.65,1.05,2.65,2.57M116.41,79.64c0,1.13.78,1.9,1.88,1.9s1.88-.78,1.88-1.9-.78-1.89-1.88-1.89-1.88.78-1.88,1.89"/>
    <path class="cls-2" d="M123.04,82.39c0,1.17-.68,1.73-1.5,1.72-.38,0-.76-.13-1.06-.35l.28-.62c.23.17.5.26.75.26.46,0,.76-.29.76-.91v-5.41h.77v5.31ZM123.18,75.61c0,.3-.22.53-.53.53s-.53-.23-.53-.53.23-.53.53-.53.53.23.53.53"/>
    <path class="cls-2" d="M129.45,79.93h-4.27c.14,1,.89,1.63,1.9,1.63.64,0,1.21-.22,1.62-.64l.43.45c-.5.54-1.23.85-2.11.85-1.54,0-2.6-1.06-2.6-2.58s1.07-2.58,2.59-2.58c1.69-.01,2.52,1.14,2.44,2.87M128.76,79.31c-.05-.98-.73-1.6-1.75-1.6s-1.71.63-1.83,1.6h3.58Z"/>
    <path class="cls-2" d="M133.48,81.85c-.37.24-.77.38-1.18.39-.76,0-1.33-.45-1.33-1.46v-2.92h-.76v-.61h.76v-1.35h.76v1.35h1.66s0,.61,0,.61h-1.66v2.79c0,.62.25.85.69.85.27,0,.55-.09.83-.26l.22.61Z"/>
    <path class="cls-2" d="M135.18,81.78c0,.16-.06.28-.15.42l-.47.7h-.44l.33-.71c-.15-.09-.22-.24-.22-.42,0-.28.2-.49.47-.49s.48.18.48.49"/>
  </g>
  <polygon class="cls-2" points="140.5 82.19 138.42 77.08 139.25 77.08 140.92 81.41 142.57 77.08 143.36 77.08 141.3 82.19 140.5 82.19"/>
  <g class="cls-6">
    <path class="cls-2" d="M148.88,79.63c0,1.53-1.1,2.59-2.65,2.59s-2.65-1.06-2.65-2.59,1.1-2.57,2.65-2.57,2.65,1.05,2.65,2.57M144.35,79.64c0,1.13.78,1.9,1.88,1.9s1.88-.78,1.88-1.9-.78-1.89-1.88-1.89-1.88.78-1.88,1.89"/>
    <path class="cls-2" d="M152.94,81.85c-.37.24-.77.38-1.18.39-.76,0-1.33-.45-1.33-1.46v-2.92h-.76v-.61h.76v-1.35h.76v1.35h1.66s0,.61,0,.61h-1.66v2.79c0,.62.25.85.69.85.27,0,.55-.09.83-.26l.22.61Z"/>
    <path class="cls-2" d="M154.88,78.21c.35-.75.99-1.15,1.88-1.16v.77c-1.1-.02-1.79.65-1.88,1.66v2.72h-.77v-5.11h.77v1.13Z"/>
    <path class="cls-2" d="M162.31,79.93h-4.27c.14,1,.88,1.63,1.9,1.63.65,0,1.21-.22,1.62-.64l.43.45c-.5.54-1.23.85-2.11.85-1.54,0-2.6-1.06-2.6-2.58s1.07-2.58,2.59-2.58c1.69-.01,2.52,1.14,2.44,2.87M161.61,79.31c-.05-.98-.72-1.6-1.75-1.6s-1.71.63-1.83,1.6h3.58Z"/>
    <path class="cls-2" d="M169.6,81.41c-.42.55-1.08.82-1.91.82-1.08,0-1.78-.68-1.78-1.56s.73-1.46,1.96-1.47h1.72v-.3c0-.75-.48-1.19-1.4-1.19-.57,0-1.11.21-1.66.58l-.33-.55c.68-.44,1.24-.69,2.13-.69,1.29,0,2.01.67,2.02,1.77v3.38s-.75,0-.75,0v-.79ZM169.59,80.43v-.61h-1.63c-.87,0-1.33.26-1.33.83s.47.93,1.2.93c.88,0,1.56-.44,1.76-1.14"/>
  </g>
  <polygon class="cls-2" points="173.03 82.19 170.96 77.08 171.78 77.08 173.45 81.41 175.11 77.08 175.89 77.08 173.84 82.19 173.03 82.19"/>
  <g class="cls-5">
    <path class="cls-2" d="M181.14,79.93h-4.27c.14,1,.88,1.63,1.9,1.63.65,0,1.21-.22,1.62-.64l.43.45c-.5.54-1.23.85-2.11.85-1.54,0-2.6-1.06-2.6-2.58s1.07-2.58,2.59-2.58c1.69-.01,2.52,1.14,2.44,2.87M180.45,79.31c-.05-.98-.72-1.6-1.75-1.6s-1.71.63-1.83,1.6h3.58Z"/>
    <path class="cls-2" d="M187.26,79.04v3.15h-.77v-2.95c0-.9-.56-1.44-1.48-1.44-1.03,0-1.67.67-1.76,1.64v2.75h-.78v-5.12h.78v1.13c.37-.78,1.07-1.15,2.03-1.16,1.25,0,1.99.76,1.99,1.99"/>
    <path class="cls-2" d="M189.87,75.61c0,.3-.22.52-.51.52s-.51-.22-.51-.52.22-.53.51-.53.51.23.51.53M188.98,77.08h.76v5.12h-.76v-5.12Z"/>
    <path class="cls-2" d="M192.41,78.21c.35-.75.99-1.15,1.88-1.16v.77c-1.1-.02-1.79.65-1.88,1.66v2.72h-.77v-5.11h.77v1.13Z"/>
    <path class="cls-1" d="M60.72,10.13h0C46.9-3.38,24.5-3.38,10.68,10.13l-.31.31c-13.82,13.51-13.82,35.41,0,48.92l21.14,21.46c2.01,1.85,5.14,1.87,7.18.04l21.73-21.51c14.11-13.46,14.25-35.59.31-49.22"/>
  </g>
  <rect class="cls-4" x="19.64" y="21.88" width="15.86" height="23.67"/>
  <polygon class="cls-4" points="59.49 45.55 44.74 45.55 44.74 33.83 51.92 29.87 59.49 33.57 59.49 45.55"/>
  <polygon class="cls-4" points="40.79 45.55 38.11 45.55 38.11 21.88 40.71 24.78 40.79 45.55"/>
  <polygon class="cls-4" points="63.6 45.54 62.1 45.54 62.1 34.31 63.52 35.29 63.6 45.54"/>
  <g class="cls-9">
    <path class="cls-4" d="M15.7,41.56c0-2.21-1.84-4.01-4.1-4.01s-4.1,1.8-4.1,4.01,1.84,4.01,4.1,4.01,4.1-1.8,4.1-4.01"/>
    <path class="cls-4" d="M15.7,34.21c0-2.21-1.84-4.01-4.1-4.01s-4.1,1.8-4.1,4.01,1.84,4.01,4.1,4.01,4.1-1.8,4.1-4.01"/>
  </g>
  <rect class="cls-1" x="75.77" y="58.93" width="2.88" height="11.07"/>
  <polygon class="cls-1" points="90.82 70 90.8 62.8 88.08 68.89 86.21 68.89 83.49 62.8 83.49 70 80.92 70 80.92 58.91 84.07 58.91 87.14 65.51 90.22 58.91 93.36 58.91 93.36 70 90.82 70"/>
  <polygon class="cls-1" points="105.54 70 105.53 62.8 102.81 68.89 100.93 68.89 98.21 62.8 98.21 70 95.64 70 95.64 58.91 98.8 58.91 101.87 65.51 104.94 58.91 108.08 58.91 108.08 70 105.54 70"/>
  <g class="cls-7">
    <path class="cls-1" d="M121.87,64.45c0,3.23-2.62,5.68-6.13,5.68s-6.12-2.43-6.12-5.68,2.62-5.61,6.12-5.61,6.13,2.4,6.13,5.61M112.57,64.46c0,1.87,1.47,3.31,3.2,3.31s3.14-1.44,3.14-3.31-1.39-3.27-3.14-3.27-3.2,1.41-3.2,3.27"/>
    <path class="cls-1" d="M128.75,58.93c2.54,0,4.16,1.08,4.16,2.77,0,1.17-.74,2.1-1.94,2.44,1.42.27,2.33,1.36,2.33,2.8,0,1.88-1.68,3.07-4.35,3.07h-5.55v-11.07h5.36ZM126.26,63.35h2.33c.84,0,1.37-.44,1.37-1.15s-.53-1.12-1.37-1.12h-2.33v2.28ZM126.26,67.83h2.33c1.07,0,1.73-.46,1.73-1.25,0-.74-.66-1.2-1.73-1.2h-2.33v2.45Z"/>
  </g>
  <rect class="cls-1" x="134.97" y="58.93" width="2.88" height="11.07"/>
  <polygon class="cls-1" points="147.8 67.64 147.8 70 140.11 70 140.11 58.93 142.99 58.93 142.99 67.64 147.8 67.64"/>
  <rect class="cls-1" x="149.17" y="58.93" width="2.88" height="11.07"/>
  <polygon class="cls-1" points="157.2 61.14 157.2 63.34 162.6 63.34 162.6 65.55 157.2 65.55 157.2 67.78 163.36 67.78 163.36 70 154.32 70 154.32 58.93 163.19 58.93 163.19 61.14 157.2 61.14"/>
  <g class="cls-10">
    <path class="cls-1" d="M170.37,66.88h-2.27v3.12h-2.88v-11.07h5.06c2.99,0,4.71,1.39,4.71,3.86,0,1.69-.73,2.91-2.05,3.56l2.38,3.65h-3.27l-1.68-3.12ZM170.29,64.67c1.25,0,1.97-.62,1.97-1.79s-.73-1.74-1.97-1.74h-2.19v3.53h2.19Z"/>
    <path class="cls-2" d="M90.46,28.48c-5.61-1.75-8.15-3.21-8.15-6.72s2.62-5.63,6.88-5.63,7.63,1.61,11.14,4.38v-7.45c-2.99-1.97-6.58-3.29-11.36-3.29-7.62,0-14.13,4.31-14.13,12.21,0,5.25,2.02,8.42,6.3,10.76h18.06c-2.01-1.78-4.88-3.12-8.73-4.26"/>
    <path class="cls-2" d="M95.39,42.22c0,4.39-3.81,6.07-8.22,6.07-4.71,0-8.3-1.9-11.74-4.46v7.6c2.84,1.9,6.95,3.22,11.81,3.22,8.6,0,15.62-3.95,15.62-12.64,0-2.52-.45-4.59-1.36-6.33h-12.77c4.08,1.35,6.66,2.95,6.66,6.55"/>
    <path class="cls-2" d="M138.08,23.5h-7.33v13.62h0v17.24c2.53-.24,5.12-.64,7.32-1.17v-29.68Z"/>
    <path class="cls-2" d="M125.07,48.65c-4.86,0-7.85-1.75-7.85-6.58v-18.58h-7.33v19.09c0,9.06,5.83,12.06,15.32,12.06.8,0,1.66-.03,2.54-.07v-6.03c-.96.07-1.88.11-2.69.11"/>
  </g>
  <rect class="cls-2" x="146.45" y="7.97" width="7.4" height="45.91"/>
  <rect class="cls-2" x="161.04" y="7.97" width="7.4" height="45.91"/>
  <polygon class="cls-2" points="185.54 60.33 185.53 71.06 192.78 71.06 192.77 60.33 185.54 60.33"/>
  <polygon class="cls-2" points="198.37 23.5 189.1 49 179.68 23.5 171.76 23.5 185.44 57.33 185.41 57.4 192.64 57.4 206 23.5 198.37 23.5"/>
</svg>